<svg width="22" height="22" viewBox="0 0 22 22" fill="none" xmlns="http://www.w3.org/2000/svg">
<path d="M9.83648 17.9941H11.7281V16.6709C12.6289 16.5121 13.4035 16.1681 14.0521 15.6388C14.7007 15.1095 15.0249 14.3244 15.0249 13.2834C15.0249 12.5424 14.8088 11.8632 14.3764 11.2456C13.944 10.6281 13.0793 10.09 11.7822 9.63131C10.7012 9.27845 9.95358 8.9697 9.53922 8.70505C9.12486 8.4404 8.91768 8.07872 8.91768 7.62C8.91768 7.16128 9.08433 6.7996 9.41762 6.53495C9.7509 6.27031 10.2328 6.13798 10.8634 6.13798C11.4399 6.13798 11.8902 6.27472 12.2145 6.54818C12.5388 6.82165 12.773 7.16128 12.9171 7.56707L14.6466 6.87899C14.4484 6.26148 14.0836 5.72337 13.5522 5.26465C13.0207 4.80593 12.4307 4.55011 11.7822 4.49718V3.17395H9.89052V4.49718C8.98975 4.69125 8.28714 5.0794 7.78271 5.66162C7.27827 6.24384 7.02605 6.89664 7.02605 7.62C7.02605 8.44922 7.27377 9.11966 7.76919 9.63131C8.26462 10.143 9.04379 10.584 10.1067 10.9545C11.2417 11.3603 12.0299 11.722 12.4712 12.0396C12.9126 12.3572 13.1333 12.7718 13.1333 13.2834C13.1333 13.8656 12.9216 14.2935 12.4983 14.567C12.0749 14.8404 11.566 14.9772 10.9715 14.9772C10.3769 14.9772 9.84999 14.7963 9.39059 14.4346C8.9312 14.0729 8.5934 13.5304 8.37722 12.8071L6.59368 13.4951C6.8459 14.342 7.23774 15.0257 7.76919 15.5461C8.30065 16.0666 8.98975 16.4239 9.83648 16.618V17.9941ZM10.8093 21.1699C9.31403 21.1699 7.90882 20.892 6.59368 20.3362C5.27855 19.7805 4.13456 19.0262 3.16172 18.0735C2.18889 17.1208 1.41872 16.0005 0.851234 14.7125C0.283745 13.4246 0 12.0484 0 10.584C0 9.11966 0.283745 7.7435 0.851234 6.45556C1.41872 5.16762 2.18889 4.04728 3.16172 3.09456C4.13456 2.14183 5.27855 1.38759 6.59368 0.831834C7.90882 0.276078 9.31403 -0.00180054 10.8093 -0.00180054C12.3046 -0.00180054 13.7098 0.276078 15.0249 0.831834C16.3401 1.38759 17.4841 2.14183 18.4569 3.09456C19.4297 4.04728 20.1999 5.16762 20.7674 6.45556C21.3349 7.7435 21.6186 9.11966 21.6186 10.584C21.6186 12.0484 21.3349 13.4246 20.7674 14.7125C20.1999 16.0005 19.4297 17.1208 18.4569 18.0735C17.4841 19.0262 16.3401 19.7805 15.0249 20.3362C13.7098 20.892 12.3046 21.1699 10.8093 21.1699Z" fill="white"/>
</svg>
