<svg width="31" height="22" viewBox="0 0 31 22" fill="none" xmlns="http://www.w3.org/2000/svg">
<path d="M11.5631 20.8956L11.5545 20.8921L11.5274 20.8781C11.369 20.7955 11.2118 20.7107 11.056 20.6238C9.18254 19.5685 7.43172 18.3288 5.83262 16.9253C3.00062 14.4205 0 10.7034 0 6.12524C0 2.70915 3.03262 8.27786e-05 6.69292 8.27786e-05C7.71047 -0.00464167 8.71604 0.208152 9.63486 0.622638C10.5537 1.03712 11.3621 1.64264 12 2.39414C12.638 1.64248 13.4467 1.03688 14.3657 0.622384C15.2847 0.207892 16.2906 -0.00481735 17.3083 8.27786e-05C20.9674 8.27786e-05 24 2.70915 24 6.12524C24 10.7045 20.9994 14.4216 18.1674 16.9242C16.5683 18.3277 14.8175 19.5674 12.944 20.6226C12.7882 20.7099 12.631 20.7951 12.4726 20.8781L12.4455 20.8921L12.4369 20.8968L12.4332 20.8979C12.2998 20.965 12.151 21 12 21C11.849 21 11.7002 20.965 11.5668 20.8979L11.5631 20.8956Z" fill="white"/>
<path d="M22.4595 18.9665L25.8275 12.7326H23.5047V8.69898L20.0205 14.9328H22.4595V18.9665ZM22.924 21.1666C21.853 21.1666 20.8464 20.9741 19.9044 20.5891C18.9624 20.2041 18.143 19.6815 17.4461 19.0215C16.7493 18.3614 16.1976 17.5852 15.7911 16.6929C15.3846 15.8007 15.1814 14.8472 15.1814 13.8327C15.1814 12.8182 15.3846 11.8648 15.7911 10.9725C16.1976 10.0802 16.7493 9.30403 17.4461 8.64398C18.143 7.98393 18.9624 7.46139 19.9044 7.07636C20.8464 6.69132 21.853 6.49881 22.924 6.49881C23.9951 6.49881 25.0016 6.69132 25.9437 7.07636C26.8857 7.46139 27.7051 7.98393 28.4019 8.64398C29.0988 9.30403 29.6504 10.0802 30.0569 10.9725C30.4634 11.8648 30.6667 12.8182 30.6667 13.8327C30.6667 14.8472 30.4634 15.8007 30.0569 16.6929C29.6504 17.5852 29.0988 18.3614 28.4019 19.0215C27.7051 19.6815 26.8857 20.2041 25.9437 20.5891C25.0016 20.9741 23.9951 21.1666 22.924 21.1666Z" fill="#894189"/>
<path d="M22.8537 18.4997L25.9156 12.8326H23.804V9.16565L20.6365 14.8328H22.8537V18.4997ZM23.2761 20.4999C22.3024 20.4999 21.3873 20.3249 20.5309 19.9748C19.6746 19.6248 18.9296 19.1498 18.2961 18.5497C17.6627 17.9497 17.1611 17.2441 16.7916 16.4329C16.4221 15.6217 16.2373 14.755 16.2373 13.8327C16.2373 12.9104 16.4221 12.0437 16.7916 11.2325C17.1611 10.4213 17.6627 9.7157 18.2961 9.11565C18.9296 8.5156 19.6746 8.04057 20.5309 7.69054C21.3873 7.34051 22.3024 7.1655 23.2761 7.1655C24.2498 7.1655 25.1648 7.34051 26.0212 7.69054C26.8776 8.04057 27.6225 8.5156 28.256 9.11565C28.8895 9.7157 29.391 10.4213 29.7605 11.2325C30.1301 12.0437 30.3148 12.9104 30.3148 13.8327C30.3148 14.755 30.1301 15.6217 29.7605 16.4329C29.391 17.2441 28.8895 17.9497 28.256 18.5497C27.6225 19.1498 26.8776 19.6248 26.0212 19.9748C25.1648 20.3249 24.2498 20.4999 23.2761 20.4999Z" fill="white"/>
</svg>
